<?xml version="1.0" encoding="UTF-8" standalone="no"?>
<svg
   width="429.24792"
   height="180.86623"
   id="exportedSVG"
   version="1.1"
   sodipodi:docname="djot-concept-simplified.svg"
   inkscape:export-filename="djot-concept-simplified.svg"
   inkscape:export-xdpi="96"
   inkscape:export-ydpi="96"
   xmlns:inkscape="http://www.inkscape.org/namespaces/inkscape"
   xmlns:sodipodi="http://sodipodi.sourceforge.net/DTD/sodipodi-0.dtd"
   xmlns="http://www.w3.org/2000/svg"
   xmlns:svg="http://www.w3.org/2000/svg"
   xmlns:pencil="http://www.evolus.vn/Namespace/Pencil">
  <defs
     id="defs7" />
  <sodipodi:namedview
     id="namedview7"
     pagecolor="#ffffff"
     bordercolor="#666666"
     borderopacity="1.0"
     inkscape:showpageshadow="2"
     inkscape:pageopacity="0.0"
     inkscape:pagecheckerboard="0"
     inkscape:deskcolor="#d1d1d1" />
  <g
     inkscape:label="Untitled Page"
     inkscape:groupmode="layer"
     id="layer_untitled_page"
     transform="translate(-218.04796,-116.48457)">
    <g
       id="g7">
      <g
         id="bc3f7b8232994b5dbd94bed9b9c3927f"
         transform="matrix(1.0001248,0,0,0.89920566,232.2941,117.83337)">
        <path
           style="fill:#ffffff;fill-opacity:1;stroke:#000000;stroke-width:1;stroke-linejoin:round;stroke-opacity:1"
           id="b1d9f3ff48c84fcabfbf0f19b9765143"
           transform="translate(0.5,0.5)"
           d="m 0,0 c 138,-2 276,-2 413.8,0 0.2,66 0.2,132 0,197.56 C 276,199 138,199 0,197.56 0,132 0,66 0,0 Z" />
      </g>
      <g
         id="34c3f80c9c6e4514b88d5ba5579f982f"
         transform="translate(267,238)">
        <path
           style="fill:#ffffff;fill-opacity:1;stroke:#000000;stroke-width:1;stroke-linejoin:round;stroke-opacity:1"
           id="bf61658311424120b8d1d12f444a4900"
           transform="translate(0.5,0.5)"
           d="m 0,0 c 123,-2 246,-2 368.36,0 0.64,16 0.64,31 0,47.16 C 246,48 123,48 0,47.16 0,31 0,16 0,0 Z" />
       </g>
      <g
         id="b57f1aa5a8654e888a7535584ae721a6"
         transform="matrix(1.0003494,0,0,0.75805621,265.9355,149.87492)">
        <path
           style="fill:#ffffff;fill-opacity:1;stroke:#000000;stroke-width:1;stroke-linejoin:round;stroke-opacity:1"
           id="952d407c666f484692ae62e898ae0dbb"
           transform="translate(0.5,0.5)"
           d="m 0,0 c 123,-1 246,-1 369,0 0,28 0,55 0,83 C 246,84 123,84 0,83 -1,55 -1,28 0,0 Z" />
      </g>
      <g
         id="de623b5e82fb43b9a9e3ecebcb7cdf29"
         transform="translate(266,129.56)">
        <path
           style="fill:#ffffff;fill-opacity:1;stroke:#000000;stroke-width:1;stroke-linejoin:round;stroke-opacity:1"
           id="1dfab34f4e7042e0a4831511446ee13f"
           transform="translate(0.5,0.5)"
           d="M 0,0 C 37,1 74,1 110.32,0 110,6 110,11 110.32,16.88 74,16 37,16 0,16.88 0,11 0,6 0,0 Z" />
        <path
           d="m 14.287555,12.927734 v 0.703125 H 13.98482 q -1.21582,0 -1.630859,-0.361328 -0.410156,-0.361328 -0.410156,-1.440429 v -1.166993 q 0,-0.7373043 -0.263672,-1.0205074 Q 11.416461,9.3583984 10.723102,9.3583984 H 10.42525 V 8.6601563 h 0.297852 q 0.698242,0 0.957031,-0.2783204 0.263672,-0.2832031 0.263672,-1.0107422 v -1.171875 q 0,-1.0791015 0.410156,-1.4355468 Q 12.769,4.4023437 13.98482,4.4023437 h 0.302735 v 0.6982422 h -0.332032 q -0.688476,0 -0.898437,0.2148438 -0.209961,0.2148437 -0.209961,0.9033203 v 1.2109375 q 0,0.7666016 -0.224609,1.1132813 -0.219727,0.3466796 -0.756836,0.46875 0.541992,0.1318359 0.761718,0.4785156 0.219727,0.3466797 0.219727,1.1083986 v 1.210937 q 0,0.688477 0.209961,0.903321 0.209961,0.214843 0.898437,0.214843 z m 6.118164,-3.6572262 q 0,-0.9912109 -0.410156,-1.5527344 -0.405274,-0.5664062 -1.118165,-0.5664062 -0.71289,0 -1.123046,0.5664062 -0.405274,0.5615235 -0.405274,1.5527344 0,0.9912112 0.405274,1.5576172 0.410156,0.561523 1.123046,0.561523 0.712891,0 1.118165,-0.561523 0.410156,-0.566406 0.410156,-1.5576172 z M 17.349078,7.3613281 q 0.283203,-0.4882812 0.712891,-0.7226562 0.43457,-0.2392578 1.035156,-0.2392578 0.996094,0 1.616211,0.7910156 0.625,0.7910156 0.625,2.0800781 0,1.2890622 -0.625,2.0800782 -0.620117,0.791016 -1.616211,0.791016 -0.600586,0 -1.035156,-0.234375 -0.429688,-0.239258 -0.712891,-0.727539 V 12 h -0.90332 V 4.4023437 h 0.90332 z m 5.478516,-2.9589844 h 0.898437 V 12 h -0.898437 z m 4.897461,2.7587891 q -0.722657,0 -1.142578,0.5664063 -0.419922,0.5615234 -0.419922,1.5429687 0,0.9814452 0.415039,1.5478512 0.419922,0.561524 1.147461,0.561524 0.717773,0 1.137695,-0.566406 0.419922,-0.566407 0.419922,-1.5429692 0,-0.9716797 -0.419922,-1.5380859 -0.419922,-0.5712891 -1.137695,-0.5712891 z m 0,-0.7617187 q 1.171875,0 1.84082,0.7617187 0.668945,0.7617188 0.668945,2.109375 0,1.3427732 -0.668945,2.1093752 -0.668945,0.761719 -1.84082,0.761719 -1.176758,0 -1.845703,-0.761719 -0.664063,-0.766602 -0.664063,-2.1093752 0,-1.3476562 0.664063,-2.109375 0.668945,-0.7617187 1.845703,-0.7617187 z m 7.93457,0.3417968 v 0.8398438 q -0.380859,-0.209961 -0.766602,-0.3125 -0.380859,-0.1074219 -0.771484,-0.1074219 -0.874023,0 -1.357422,0.5566406 -0.483398,0.5517579 -0.483398,1.5527344 0,1.0009762 0.483398,1.5576172 0.483399,0.551758 1.357422,0.551758 0.390625,0 0.771484,-0.102539 0.385743,-0.107422 0.766602,-0.317383 v 0.830078 q -0.375977,0.175781 -0.78125,0.263672 -0.400391,0.08789 -0.854492,0.08789 -1.235352,0 -1.962891,-0.776368 -0.727539,-0.776367 -0.727539,-2.0947262 0,-1.3378906 0.732422,-2.1044922 0.737305,-0.7666015 2.016602,-0.7666015 0.415039,0 0.810546,0.087891 0.395508,0.083008 0.766602,0.2539068 z m 1.52832,-2.3388672 h 0.903321 V 8.8896484 L 40.77193,6.53125 h 1.147461 L 39.019,9.0898438 42.041461,12 H 40.869586 L 38.091266,9.3291016 V 12 h -0.903321 z m 11.489258,4.8486329 q -1.088867,0 -1.508789,0.2490234 -0.419922,0.2490234 -0.419922,0.849609 0,0.478516 0.3125,0.761719 0.317383,0.27832 0.859375,0.27832 0.747071,0 1.196289,-0.527343 0.454102,-0.532227 0.454102,-1.4111331 V 9.2509766 Z M 50.469195,8.8798828 V 12 h -0.898437 v -0.830078 q -0.307617,0.498047 -0.766602,0.737305 -0.458984,0.234375 -1.123047,0.234375 -0.839843,0 -1.33789,-0.46875 -0.493164,-0.473633 -0.493164,-1.264649 0,-0.9228514 0.615234,-1.3916014 0.620117,-0.46875 1.845703,-0.46875 h 1.259766 v -0.087891 q 0,-0.6201172 -0.410156,-0.9570312 -0.405274,-0.3417969 -1.142579,-0.3417969 -0.46875,0 -0.913085,0.1123047 -0.444336,0.1123047 -0.854493,0.3369141 V 6.7802734 q 0.493164,-0.1904297 0.957032,-0.2832031 0.463867,-0.097656 0.90332,-0.097656 1.186523,0 1.772461,0.6152343 0.585937,0.6152344 0.585937,1.8652342 z M 53.208453,4.9785156 V 6.53125 h 1.850586 v 0.6982422 h -1.850586 v 2.9687498 q 0,0.668946 0.180664,0.859375 0.185547,0.19043 0.747071,0.19043 h 0.922851 V 12 h -0.922851 q -1.04004,0 -1.435547,-0.385742 -0.395508,-0.390625 -0.395508,-1.416016 V 7.2294922 h -0.65918 V 6.53125 h 0.65918 V 4.9785156 Z m 3.920899,0 V 6.53125 h 1.850586 v 0.6982422 h -1.850586 v 2.9687498 q 0,0.668946 0.180664,0.859375 0.185547,0.19043 0.74707,0.19043 h 0.922852 V 12 h -0.922852 q -1.040039,0 -1.435547,-0.385742 -0.395508,-0.390625 -0.395508,-1.416016 V 7.2294922 H 55.566852 V 6.53125 h 0.659179 V 4.9785156 Z m 6.201171,2.3925781 q -0.151367,-0.087891 -0.332031,-0.1269531 -0.175781,-0.043945 -0.390625,-0.043945 -0.761719,0 -1.171875,0.4980469 -0.405273,0.4931641 -0.405273,1.4208984 V 12 H 60.127398 V 6.53125 h 0.903321 v 0.8496094 q 0.283203,-0.4980469 0.737304,-0.7373047 0.454102,-0.2441406 1.103516,-0.2441406 0.09277,0 0.205078,0.014648 0.112305,0.00977 0.249024,0.03418 z M 64.272906,6.53125 h 0.898438 V 12 h -0.898438 z m 0,-2.1289063 h 0.898438 v 1.1376954 h -0.898438 z m 6.704102,4.8681641 q 0,-0.9912109 -0.410156,-1.5527344 -0.405274,-0.5664062 -1.118164,-0.5664062 -0.712891,0 -1.123047,0.5664062 -0.405274,0.5615235 -0.405274,1.5527344 0,0.9912112 0.405274,1.5576172 0.410156,0.561523 1.123047,0.561523 0.71289,0 1.118164,-0.561523 0.410156,-0.566406 0.410156,-1.5576172 z M 67.920367,7.3613281 q 0.283203,-0.4882812 0.712891,-0.7226562 0.43457,-0.2392578 1.035156,-0.2392578 0.996094,0 1.616211,0.7910156 0.625,0.7910156 0.625,2.0800781 0,1.2890622 -0.625,2.0800782 -0.620117,0.791016 -1.616211,0.791016 -0.600586,0 -1.035156,-0.234375 -0.429688,-0.239258 -0.712891,-0.727539 V 12 h -0.90332 V 4.4023437 h 0.90332 z m 5.385742,2.4804688 V 6.53125 h 0.898438 v 3.2763672 q 0,0.7763668 0.302734,1.1669918 0.302735,0.385743 0.908203,0.385743 0.727539,0 1.147461,-0.463868 0.424805,-0.463867 0.424805,-1.2646481 V 6.53125 h 0.898438 V 12 H 76.98775 v -0.839844 q -0.327148,0.498047 -0.761719,0.742188 -0.429687,0.239258 -1.000976,0.239258 -0.942383,0 -1.430664,-0.585938 -0.488282,-0.585937 -0.488282,-1.7138671 z M 75.566852,6.3994141 Z M 80.625445,4.9785156 V 6.53125 h 1.850586 v 0.6982422 h -1.850586 v 2.9687498 q 0,0.668946 0.180664,0.859375 0.185547,0.19043 0.747071,0.19043 h 0.922851 V 12 H 81.55318 q -1.040039,0 -1.435547,-0.385742 -0.395508,-0.390625 -0.395508,-1.416016 V 7.2294922 h -0.65918 V 6.53125 h 0.65918 V 4.9785156 Z m 7.709961,4.0625 v 0.4394532 h -4.130859 q 0.05859,0.9277342 0.556641,1.4160152 0.502929,0.483399 1.396484,0.483399 0.517578,0 1.000976,-0.126953 0.488282,-0.126953 0.966797,-0.38086 v 0.84961 q -0.483398,0.205078 -0.991211,0.3125 -0.507812,0.107422 -1.030273,0.107422 -1.308594,0 -2.075195,-0.761719 -0.761719,-0.761719 -0.761719,-2.0605471 0,-1.3427734 0.722656,-2.1289062 0.727539,-0.7910156 1.958008,-0.7910156 1.103516,0 1.743164,0.7128906 0.644531,0.7080078 0.644531,1.9287109 z M 87.436969,8.7773438 Q 87.427203,8.0400391 87.02193,7.6005859 86.621539,7.1611328 85.957477,7.1611328 q -0.751954,0 -1.206055,0.4248047 -0.449219,0.4248047 -0.517578,1.1962891 z m 5.859375,-2.084961 v 0.8496094 q -0.38086,-0.1953125 -0.791016,-0.2929688 -0.410156,-0.097656 -0.849609,-0.097656 -0.668946,0 -1.00586,0.2050781 -0.332031,0.2050781 -0.332031,0.6152344 0,0.3125 0.239258,0.4931641 0.239258,0.1757812 0.961914,0.336914 l 0.307617,0.068359 q 0.957031,0.2050781 1.357422,0.5810547 0.405274,0.3710937 0.405274,1.0400393 0,0.761719 -0.605469,1.206055 -0.600586,0.444336 -1.655274,0.444336 -0.439453,0 -0.917968,-0.08789 -0.473633,-0.08301 -1.000977,-0.253906 V 10.87207 q 0.498047,0.258789 0.981445,0.390625 0.483399,0.126953 0.957032,0.126953 0.634765,0 0.976562,-0.214843 0.341797,-0.219727 0.341797,-0.615235 0,-0.366211 -0.249023,-0.5615231 -0.244141,-0.1953125 -1.079102,-0.3759766 l -0.3125,-0.073242 Q 90.190875,9.3730469 89.819781,9.0117188 89.448688,8.6455078 89.448688,8.0107422 q 0,-0.7714844 0.546875,-1.1914063 0.546875,-0.4199218 1.552734,-0.4199218 0.498047,0 0.9375,0.073242 0.439453,0.073242 0.810547,0.2197267 z m 2.03125,6.2353512 h 0.341797 q 0.683593,0 0.888672,-0.209961 0.20996,-0.20996 0.20996,-0.908203 v -1.210937 q 0,-0.7617189 0.219727,-1.1083986 Q 97.207477,9.1435547 97.749469,9.0117188 97.207477,8.8896484 96.98775,8.5429688 96.768023,8.1962891 96.768023,7.4296875 V 6.21875 q 0,-0.6933594 -0.20996,-0.9033203 Q 96.352984,5.1005859 95.669391,5.1005859 H 95.327594 V 4.4023437 h 0.307617 q 1.21582,0 1.621094,0.3613282 0.410156,0.3564453 0.410156,1.4355468 v 1.171875 q 0,0.7275391 0.263672,1.0107422 0.263672,0.2783204 0.957031,0.2783204 h 0.302734 v 0.6982421 h -0.302734 q -0.693359,0 -0.957031,0.2832032 -0.263672,0.2832031 -0.263672,1.0205074 v 1.166993 q 0,1.079101 -0.410156,1.440429 -0.405274,0.361328 -1.621094,0.361328 h -0.307617 z"
           id="589c3ba40b70489b81b6c3d25d2f2361"
           aria-label="{block attributes}" />
      </g>
      <g
         id="e1c9bd79459745cca586e3ec14822ce7"
         transform="rotate(-90,278.48438,-2.203125)">
        <path
           d="m 2.3613281,-4.1777344 v 3.20507815 h 1.8984375 q 0.9550781,0 1.4121094,-0.39257815 0.4628906,-0.3984375 0.4628906,-1.2128906 0,-0.8203125 -0.4628906,-1.2070313 -0.4570313,-0.3925781 -1.4121094,-0.3925781 z m 0,-3.5976562 v 2.6367187 h 1.7519531 q 0.8671875,0 1.2890625,-0.3222656 0.4277344,-0.328125 0.4277344,-0.9960937 0,-0.6621094 -0.4277344,-0.9902344 -0.421875,-0.328125 -1.2890625,-0.328125 z M 1.1777344,-8.7480469 h 3.0234375 q 1.3535156,0 2.0859375,0.5625 0.7324218,0.5625 0.7324218,1.5996094 0,0.8027344 -0.375,1.2773438 -0.375,0.4746093 -1.1015625,0.5917968 0.8730469,0.1875 1.3535157,0.7851563 0.4863281,0.5917968 0.4863281,1.4824218 0,1.1718751 -0.796875,1.81054693 Q 5.7890625,0 4.3183594,0 H 1.1777344 Z M 9.3632813,-9.1171875 H 10.441406 V 0 H 9.3632813 Z m 5.8769527,3.3105469 q -0.867187,0 -1.371093,0.6796875 -0.503907,0.6738281 -0.503907,1.8515625 0,1.1777343 0.498047,1.8574219 0.503907,0.67382808 1.376953,0.67382808 0.861328,0 1.365235,-0.67968748 0.503906,-0.6796875 0.503906,-1.8515625 0,-1.1660156 -0.503906,-1.8457031 -0.503907,-0.6855469 -1.365235,-0.6855469 z m 0,-0.9140625 q 1.40625,0 2.208985,0.9140625 0.802734,0.9140625 0.802734,2.53125 0,1.6113281 -0.802734,2.53124998 -0.802735,0.91406249 -2.208985,0.91406249 -1.412109,0 -2.214843,-0.91406249 -0.796875,-0.91992188 -0.796875,-2.53124998 0,-1.6171875 0.796875,-2.53125 0.802734,-0.9140625 2.214843,-0.9140625 z m 9.521485,0.4101562 v 1.0078125 q -0.457032,-0.2519531 -0.919922,-0.375 -0.457031,-0.1289062 -0.925781,-0.1289062 -1.048829,0 -1.628907,0.6679687 -0.580078,0.6621094 -0.580078,1.8632813 0,1.2011718 0.580078,1.8691406 0.580078,0.66210938 1.628907,0.66210938 0.46875,0 0.925781,-0.12304688 0.46289,-0.12890625 0.919922,-0.3808594 v 0.99609377 q -0.451172,0.21093751 -0.9375,0.31640625 -0.480469,0.10546875 -1.025391,0.10546875 -1.482422,0 -2.355469,-0.93164062 -0.873047,-0.93164065 -0.873047,-2.51367185 0,-1.6054688 0.878907,-2.5253906 0.884765,-0.9199219 2.419922,-0.9199219 0.498046,0 0.972656,0.1054687 0.474609,0.099609 0.919922,0.3046875 z m 1.833984,-2.8066406 h 1.083984 v 5.3847656 L 30.896484,-6.5625 h 1.376953 L 28.792969,-3.4921875 32.419922,0 h -1.40625 L 27.679687,-3.2050781 V 0 h -1.083984 z"
           id="ffde192afb684cf18926a518c9742edd"
           aria-label="Block" />
      </g>
      <g
         id="e6af428e9cf7460086cb9d2bc5c64be6"
         transform="translate(295.56,162.60001)">
        <g
           id="9c149dd71fb2421e9e0146ac10a328db"
           transform="translate(0.5,0.5)"
           style="fill:#ffffff;fill-opacity:1;stroke:#000000;stroke-width:1;stroke-opacity:1">
          <path
             style="stroke:#000000;stroke-width:1;stroke-linejoin:round;stroke-opacity:1"
             id="8fcbdd1ed483409ba5add67b6800cf85"
             transform="translate(0.5,0.5)"
             d="M 0,0 C 30,-1 60,-1 89.92,0 90,8 90,17 89.92,25 60,25 30,25 0,25 0,17 0,8 0,0 Z" />
        </g>
        <path
           d="m 1.1308594,-6.5625 h 1.078125 V 0 h -1.078125 z m 0,-2.5546875 h 1.078125 v 1.3652344 h -1.078125 z m 8.7890625,5.15625 V 0 h -1.078125 v -3.9257813 q 0,-0.9316406 -0.3632813,-1.3945312 -0.3632812,-0.4628906 -1.0898437,-0.4628906 -0.8730469,0 -1.3769532,0.5566406 -0.5039062,0.5566406 -0.5039062,1.5175781 V 0 H 4.4238281 v -6.5625 h 1.0839844 v 1.0195313 q 0.3867187,-0.5917969 0.9082031,-0.8847657 0.5273438,-0.2929687 1.2128906,-0.2929687 1.1308594,0 1.7109376,0.703125 0.5800781,0.6972656 0.5800781,2.0566406 z m 2.1503911,-5.15625 h 1.078125 V 0 H 12.070313 Z M 15.404297,-6.5625 h 1.078125 V 0 h -1.078125 z m 0,-2.5546875 h 1.078125 v 1.3652344 h -1.078125 z m 8.789062,5.15625 V 0 h -1.078125 v -3.9257813 q 0,-0.9316406 -0.363281,-1.3945312 -0.363281,-0.4628906 -1.089844,-0.4628906 -0.873047,0 -1.376953,0.5566406 -0.503906,0.5566406 -0.503906,1.5175781 V 0 h -1.083984 v -6.5625 h 1.083984 v 1.0195313 q 0.386719,-0.5917969 0.908203,-0.8847657 0.527344,-0.2929687 1.212891,-0.2929687 1.130859,0 1.710937,0.703125 0.580078,0.6972656 0.580078,2.0566406 z m 7.763672,0.4101562 v 0.5273438 H 27 q 0.07031,1.1132813 0.667969,1.6992188 0.603515,0.58007808 1.675781,0.58007808 0.621094,0 1.201172,-0.15234376 0.585937,-0.15234372 1.160156,-0.45703122 v 1.01953122 q -0.580078,0.24609376 -1.189453,0.375 -0.609375,0.12890625 -1.236328,0.12890625 -1.570313,0 -2.490235,-0.91406249 Q 25.875,-1.6582031 25.875,-3.2167969 q 0,-1.6113281 0.867187,-2.5546875 0.873047,-0.9492187 2.34961,-0.9492187 1.324219,0 2.091797,0.8554687 0.773437,0.8496094 0.773437,2.3144531 z m -1.078125,-0.3164062 q -0.01172,-0.8847656 -0.498047,-1.4121094 -0.480468,-0.5273437 -1.277343,-0.5273437 -0.902344,0 -1.447266,0.5097656 -0.539063,0.5097656 -0.621094,1.4355469 z m 11.384766,-2.4433594 v 1.0078125 q -0.457031,-0.2519531 -0.919922,-0.375 -0.457031,-0.1289062 -0.925781,-0.1289062 -1.048828,0 -1.628907,0.6679687 -0.580078,0.6621094 -0.580078,1.8632813 0,1.2011718 0.580078,1.8691406 0.580079,0.66210938 1.628907,0.66210938 0.46875,0 0.925781,-0.12304688 0.462891,-0.12890625 0.919922,-0.3808594 v 0.99609377 q -0.451172,0.21093751 -0.9375,0.31640625 -0.480469,0.10546875 -1.025391,0.10546875 -1.482422,0 -2.355469,-0.93164062 -0.873046,-0.93164065 -0.873046,-2.51367185 0,-1.6054688 0.878906,-2.5253906 0.884765,-0.9199219 2.419922,-0.9199219 0.498047,0 0.972656,0.1054687 0.474609,0.099609 0.919922,0.3046875 z m 4.417969,0.5039063 q -0.867188,0 -1.371094,0.6796875 -0.503906,0.6738281 -0.503906,1.8515625 0,1.1777343 0.498046,1.8574219 0.503907,0.67382808 1.376954,0.67382808 0.861328,0 1.365234,-0.67968748 0.503906,-0.6796875 0.503906,-1.8515625 0,-1.1660156 -0.503906,-1.8457031 -0.503906,-0.6855469 -1.365234,-0.6855469 z m 0,-0.9140625 q 1.40625,0 2.208984,0.9140625 0.802734,0.9140625 0.802734,2.53125 0,1.6113281 -0.802734,2.53124998 -0.802734,0.91406249 -2.208984,0.91406249 -1.41211,0 -2.214844,-0.91406249 -0.796875,-0.91992188 -0.796875,-2.53124998 0,-1.6171875 0.796875,-2.53125 0.802734,-0.9140625 2.214844,-0.9140625 z m 10.253906,2.7597656 V 0 h -1.078125 v -3.9257813 q 0,-0.9316406 -0.363281,-1.3945312 -0.363282,-0.4628906 -1.089844,-0.4628906 -0.873047,0 -1.376953,0.5566406 -0.503907,0.5566406 -0.503907,1.5175781 V 0 h -1.083984 v -6.5625 h 1.083984 v 1.0195313 q 0.386719,-0.5917969 0.908204,-0.8847657 0.527343,-0.2929687 1.21289,-0.2929687 1.13086,0 1.710938,0.703125 0.580078,0.6972656 0.580078,2.0566406 z m 3.216797,-4.4648438 V -6.5625 h 2.220703 v 0.8378906 h -2.220703 v 3.5625 q 0,0.8027344 0.216797,1.03125 0.222656,0.22851565 0.896484,0.22851565 h 1.107422 V 0 h -1.107422 q -1.248047,0 -1.722656,-0.46289063 -0.47461,-0.46875 -0.47461,-1.69921877 v -3.5625 H 58.277344 V -6.5625 h 0.791015 v -1.8632813 z m 9.251953,4.875 v 0.5273438 h -4.957031 q 0.07031,1.1132813 0.667968,1.6992188 0.603516,0.58007808 1.675782,0.58007808 0.621093,0 1.201171,-0.15234376 0.585938,-0.15234372 1.160157,-0.45703122 v 1.01953122 q -0.580078,0.24609376 -1.189453,0.375 -0.609375,0.12890625 -1.236329,0.12890625 -1.570312,0 -2.490234,-0.91406249 -0.914062,-0.91406248 -0.914062,-2.47265628 0,-1.6113281 0.867187,-2.5546875 0.873047,-0.9492187 2.349609,-0.9492187 1.324219,0 2.091797,0.8554687 0.773438,0.8496094 0.773438,2.3144531 z m -1.078125,-0.3164062 q -0.01172,-0.8847656 -0.498047,-1.4121094 -0.480469,-0.5273437 -1.277344,-0.5273437 -0.902344,0 -1.447265,0.5097656 -0.539063,0.5097656 -0.621094,1.4355469 z m 8.302734,-0.09375 V 0 h -1.078125 v -3.9257813 q 0,-0.9316406 -0.363281,-1.3945312 -0.363281,-0.4628906 -1.089844,-0.4628906 -0.873047,0 -1.376953,0.5566406 -0.503906,0.5566406 -0.503906,1.5175781 V 0 h -1.083985 v -6.5625 h 1.083985 v 1.0195313 q 0.386719,-0.5917969 0.908203,-0.8847657 0.527344,-0.2929687 1.212891,-0.2929687 1.130859,0 1.710937,0.703125 0.580078,0.6972656 0.580078,2.0566406 z m 3.216797,-4.4648438 V -6.5625 h 2.220703 v 0.8378906 h -2.220703 v 3.5625 q 0,0.8027344 0.216797,1.03125 0.222656,0.22851565 0.896484,0.22851565 h 1.107422 V 0 h -1.107422 q -1.248047,0 -1.722656,-0.46289063 -0.474609,-0.46875 -0.474609,-1.69921877 v -3.5625 H 77.970703 V -6.5625 h 0.791016 v -1.8632813 z"
           id="08c0367fffae4cc8bd5511159da58f61"
           transform="translate(5,16)"
           aria-label="inline content" />
      </g>
      <g
         id="g8"
         transform="translate(2)">
        <g
           id="844a4b9defe84e3a80147ebacab610fd"
           transform="matrix(1.1017385,0,0,0.99696704,388.03362,172.72557)"
           style="fill:#ffffff;fill-opacity:1;stroke:#000000;stroke-width:1;stroke-opacity:1">
          <path
             style="stroke:#000000;stroke-width:1;stroke-linejoin:round;stroke-opacity:1"
             id="5b247324a1174156af7b189589d545d7"
             transform="translate(0.5,0.5)"
             d="M 0,0 C 33,0 67,0 100.16,0 100,5 100,10 100.16,15.4 67,16 33,16 0,15.4 0,10 0,5 0,0 Z" />
        </g>
        <path
           d="m 399.18354,185.22052 v 0.77343 h -0.33301 q -1.33741,0 -1.79395,-0.39746 -0.45117,-0.39746 -0.45117,-1.58447 v -1.28369 q 0,-0.81103 -0.29004,-1.12256 -0.29004,-0.31152 -1.05273,-0.31152 H 394.935 v -0.76807 h 0.32764 q 0.76806,0 1.05273,-0.30615 0.29004,-0.31152 0.29004,-1.11182 v -1.28906 q 0,-1.18701 0.45117,-1.5791 0.45654,-0.39746 1.79395,-0.39746 h 0.33301 v 0.76806 h -0.36524 q -0.75732,0 -0.98828,0.23633 -0.23096,0.23633 -0.23096,0.99365 v 1.33204 q 0,0.84326 -0.24707,1.22461 -0.2417,0.38134 -0.83252,0.51562 0.59619,0.14502 0.83789,0.52637 0.2417,0.38135 0.2417,1.21924 v 1.33203 q 0,0.75732 0.23096,0.99365 0.23096,0.23633 0.98828,0.23633 z m 2.41162,-7.03614 h 0.98828 v 6.01563 h -0.98828 z m 0,-2.34179 h 0.98828 v 1.25146 h -0.98828 z m 8.05664,4.72656 v 3.63086 h -0.98828 v -3.59863 q 0,-0.85401 -0.33301,-1.27832 -0.33301,-0.42432 -0.99903,-0.42432 -0.80029,0 -1.2622,0.51025 -0.46192,0.51026 -0.46192,1.39112 v 3.3999 h -0.99365 v -6.01563 h 0.99365 v 0.93458 q 0.3545,-0.54249 0.83252,-0.81104 0.4834,-0.26855 1.11182,-0.26855 1.03662,0 1.56836,0.64453 0.53174,0.63916 0.53174,1.88525 z m 1.97119,-4.72656 h 0.98828 v 8.35742 h -0.98828 z m 3.05615,2.34179 h 0.98828 v 6.01563 h -0.98828 z m 0,-2.34179 h 0.98828 v 1.25146 h -0.98828 z m 8.05664,4.72656 v 3.63086 h -0.98828 v -3.59863 q 0,-0.85401 -0.33301,-1.27832 -0.33301,-0.42432 -0.99902,-0.42432 -0.80029,0 -1.26221,0.51025 -0.46191,0.51026 -0.46191,1.39112 v 3.3999 h -0.99366 v -6.01563 h 0.99366 v 0.93458 q 0.35449,-0.54249 0.83252,-0.81104 0.4834,-0.26855 1.11181,-0.26855 1.03662,0 1.56836,0.64453 0.53174,0.63916 0.53174,1.88525 z m 7.1167,0.37598 v 0.4834 h -4.54395 q 0.0644,1.0205 0.61231,1.55761 0.55322,0.53174 1.53613,0.53174 0.56934,0 1.10108,-0.13965 0.53711,-0.13965 1.06347,-0.41894 v 0.93457 q -0.53174,0.22558 -1.09033,0.34375 -0.55859,0.11816 -1.1333,0.11816 -1.43945,0 -2.28271,-0.83789 -0.8379,-0.83789 -0.8379,-2.2666 0,-1.47705 0.79493,-2.3418 0.80029,-0.87011 2.15381,-0.87011 1.21386,0 1.91748,0.78418 0.70898,0.7788 0.70898,2.12158 z m -0.98828,-0.29004 q -0.0107,-0.81104 -0.45654,-1.29444 -0.44043,-0.48339 -1.1709,-0.48339 -0.82715,0 -1.32666,0.46728 -0.49414,0.46729 -0.56934,1.31592 z m 8.84082,0.52099 q -1.19775,0 -1.65967,0.27393 -0.46191,0.27393 -0.46191,0.93457 0,0.52637 0.34375,0.83789 0.34912,0.30615 0.94531,0.30615 0.82178,0 1.31592,-0.58008 0.49951,-0.58544 0.49951,-1.55224 v -0.22022 z m 1.97119,-0.4082 v 3.43213 h -0.98828 v -0.91309 q -0.33838,0.54786 -0.84326,0.81104 -0.50489,0.25781 -1.23535,0.25781 -0.92383,0 -1.47168,-0.51562 -0.54248,-0.521 -0.54248,-1.39112 0,-1.01513 0.67675,-1.53076 0.68213,-0.51562 2.03028,-0.51562 h 1.38574 v -0.0967 q 0,-0.68213 -0.45117,-1.05274 -0.4458,-0.37597 -1.25684,-0.37597 -0.51562,0 -1.00439,0.12353 -0.48877,0.12354 -0.93994,0.37061 v -0.91309 q 0.54248,-0.20947 1.05273,-0.31152 0.51025,-0.10742 0.99365,-0.10742 1.30518,0 1.94971,0.67675 0.64453,0.67676 0.64453,2.05176 z m 3.01318,-4.2915 v 1.708 h 2.03565 v 0.76807 h -2.03565 v 3.26563 q 0,0.73584 0.19873,0.94531 0.20411,0.20947 0.82178,0.20947 h 1.01514 v 0.82715 h -1.01514 q -1.14404,0 -1.5791,-0.42432 -0.43506,-0.42968 -0.43506,-1.55761 v -3.26563 h -0.7251 v -0.76807 h 0.7251 v -1.708 z m 4.31299,0 v 1.708 h 2.03565 v 0.76807 h -2.03565 v 3.26563 q 0,0.73584 0.19873,0.94531 0.2041,0.20947 0.82178,0.20947 h 1.01514 v 0.82715 h -1.01514 q -1.14404,0 -1.5791,-0.42432 -0.43506,-0.42968 -0.43506,-1.55761 v -3.26563 h -0.7251 v -0.76807 h 0.7251 v -1.708 z m 6.82129,2.63183 q -0.1665,-0.0967 -0.36523,-0.13965 -0.19336,-0.0483 -0.42969,-0.0483 -0.83789,0 -1.28906,0.54786 -0.4458,0.54248 -0.4458,1.56298 v 3.16895 h -0.99366 v -6.01563 h 0.99366 v 0.93458 q 0.31152,-0.54786 0.81103,-0.81104 0.49951,-0.26855 1.21387,-0.26855 0.10205,0 0.22558,0.0161 0.12354,0.0107 0.27393,0.0376 z m 1.03662,-0.92383 h 0.98828 v 6.01563 h -0.98828 z m 0,-2.34179 h 0.98828 v 1.25146 h -0.98828 z m 7.37451,5.35498 q 0,-1.09033 -0.45117,-1.70801 -0.4458,-0.62305 -1.22998,-0.62305 -0.78418,0 -1.23535,0.62305 -0.4458,0.61768 -0.4458,1.70801 0,1.09033 0.4458,1.71338 0.45117,0.61767 1.23535,0.61767 0.78418,0 1.22998,-0.61767 0.45117,-0.62305 0.45117,-1.71338 z m -3.3623,-2.1001 q 0.31152,-0.53711 0.78418,-0.79492 0.47803,-0.26318 1.13867,-0.26318 1.0957,0 1.77783,0.87011 0.6875,0.87012 0.6875,2.28809 0,1.41797 -0.6875,2.28808 -0.68213,0.87012 -1.77783,0.87012 -0.66064,0 -1.13867,-0.25781 -0.47266,-0.26318 -0.78418,-0.80029 v 0.90234 h -0.99365 v -8.35742 h 0.99365 z m 5.92432,2.72852 v -3.64161 h 0.98828 v 3.60401 q 0,0.854 0.33301,1.28369 0.333,0.42432 0.99902,0.42432 0.80029,0 1.26221,-0.51026 0.46728,-0.51025 0.46728,-1.39111 v -3.41065 h 0.98828 v 6.01563 h -0.98828 v -0.92383 q -0.35986,0.54785 -0.83789,0.81641 -0.47266,0.26318 -1.10107,0.26318 -1.03663,0 -1.57373,-0.64453 -0.53711,-0.64453 -0.53711,-1.88525 z m 2.48681,-3.78662 z m 5.56446,-1.56299 v 1.708 h 2.03564 v 0.76807 h -2.03564 v 3.26563 q 0,0.73584 0.19873,0.94531 0.2041,0.20947 0.82177,0.20947 h 1.01514 v 0.82715 h -1.01514 q -1.14404,0 -1.5791,-0.42432 -0.43506,-0.42968 -0.43506,-1.55761 v -3.26563 h -0.72509 v -0.76807 h 0.72509 v -1.708 z m 8.48095,4.46875 v 0.4834 h -4.54394 q 0.0645,1.0205 0.6123,1.55761 0.55322,0.53174 1.53613,0.53174 0.56934,0 1.10108,-0.13965 0.53711,-0.13965 1.06348,-0.41894 v 0.93457 q -0.53174,0.22558 -1.09034,0.34375 -0.55859,0.11816 -1.1333,0.11816 -1.43945,0 -2.28271,-0.83789 -0.83789,-0.83789 -0.83789,-2.2666 0,-1.47705 0.79492,-2.3418 0.80029,-0.87011 2.15381,-0.87011 1.21386,0 1.91748,0.78418 0.70898,0.7788 0.70898,2.12158 z m -0.98828,-0.29004 q -0.0107,-0.81104 -0.45654,-1.29444 -0.44043,-0.48339 -1.1709,-0.48339 -0.82715,0 -1.32666,0.46728 -0.49414,0.46729 -0.56934,1.31592 z m 6.44531,-2.29346 v 0.93457 q -0.41894,-0.21484 -0.87011,-0.32226 -0.45118,-0.10743 -0.93457,-0.10743 -0.73584,0 -1.10645,0.22559 -0.36523,0.22559 -0.36523,0.67676 0,0.34375 0.26318,0.54248 0.26318,0.19336 1.05811,0.3706 l 0.33837,0.0752 q 1.05274,0.22558 1.49317,0.63916 0.4458,0.4082 0.4458,1.14404 0,0.83789 -0.66602,1.32666 -0.66064,0.48877 -1.8208,0.48877 -0.4834,0 -1.00976,-0.0967 -0.521,-0.0913 -1.10108,-0.2793 v -1.0205 q 0.54785,0.28466 1.07959,0.42968 0.53174,0.13965 1.05274,0.13965 0.69824,0 1.07422,-0.23633 0.37597,-0.24169 0.37597,-0.67675 0,-0.40284 -0.27392,-0.61768 -0.26856,-0.21484 -1.18701,-0.41357 l -0.34375,-0.0806 q -0.91846,-0.19336 -1.32666,-0.59082 -0.40821,-0.40283 -0.40821,-1.10107 0,-0.84864 0.60156,-1.31055 0.60157,-0.46191 1.70801,-0.46191 0.54785,0 1.03125,0.0806 0.4834,0.0806 0.8916,0.2417 z m 2.23438,6.85889 h 0.37598 q 0.75195,0 0.97753,-0.23096 0.23096,-0.23096 0.23096,-0.99902 v -1.33203 q 0,-0.83789 0.2417,-1.21924 0.2417,-0.38135 0.83789,-0.52637 -0.59619,-0.13428 -0.83789,-0.51562 -0.2417,-0.38135 -0.2417,-1.22461 v -1.33204 q 0,-0.76269 -0.23096,-0.99365 -0.22558,-0.23633 -0.97753,-0.23633 h -0.37598 v -0.76806 h 0.33838 q 1.3374,0 1.7832,0.39746 0.45117,0.39209 0.45117,1.5791 v 1.28906 q 0,0.8003 0.29004,1.11182 0.29004,0.30615 1.05274,0.30615 h 0.333 v 0.76807 h -0.333 q -0.7627,0 -1.05274,0.31152 -0.29004,0.31153 -0.29004,1.12256 v 1.28369 q 0,1.18701 -0.45117,1.58447 -0.4458,0.39746 -1.7832,0.39746 h -0.33838 z"
           id="e9dbed735c0449fda76a5afdf4092b4b"
           aria-label="{inline attributes}" />
      </g>
      <g
         id="0b54353be0ad4b319a9e6c654d15f81e"
         transform="translate(526.56,162.60001)">
        <g
           id="69dd150d9d834828a88174315246dcc3"
           transform="translate(0.5,0.5)"
           style="fill:#ffffff;fill-opacity:1;stroke:#000000;stroke-width:1;stroke-opacity:1">
          <path
             style="stroke:#000000;stroke-width:1;stroke-linejoin:round;stroke-opacity:1"
             id="5c80d08d4f864c5cbc5045c34fdb9b04"
             transform="translate(0.5,0.5)"
             d="M 0,0 C 30,-1 60,-1 89.92,0 90,8 90,17 89.92,25 60,25 30,25 0,25 0,17 0,8 0,0 Z" />
        </g>
        <path
           d="m 1.1308594,-6.5625 h 1.078125 V 0 h -1.078125 z m 0,-2.5546875 h 1.078125 v 1.3652344 h -1.078125 z m 8.7890625,5.15625 V 0 h -1.078125 v -3.9257813 q 0,-0.9316406 -0.3632813,-1.3945312 -0.3632812,-0.4628906 -1.0898437,-0.4628906 -0.8730469,0 -1.3769532,0.5566406 -0.5039062,0.5566406 -0.5039062,1.5175781 V 0 H 4.4238281 v -6.5625 h 1.0839844 v 1.0195313 q 0.3867187,-0.5917969 0.9082031,-0.8847657 0.5273438,-0.2929687 1.2128906,-0.2929687 1.1308594,0 1.7109376,0.703125 0.5800781,0.6972656 0.5800781,2.0566406 z m 2.1503911,-5.15625 h 1.078125 V 0 H 12.070313 Z M 15.404297,-6.5625 h 1.078125 V 0 h -1.078125 z m 0,-2.5546875 h 1.078125 v 1.3652344 h -1.078125 z m 8.789062,5.15625 V 0 h -1.078125 v -3.9257813 q 0,-0.9316406 -0.363281,-1.3945312 -0.363281,-0.4628906 -1.089844,-0.4628906 -0.873047,0 -1.376953,0.5566406 -0.503906,0.5566406 -0.503906,1.5175781 V 0 h -1.083984 v -6.5625 h 1.083984 v 1.0195313 q 0.386719,-0.5917969 0.908203,-0.8847657 0.527344,-0.2929687 1.212891,-0.2929687 1.130859,0 1.710937,0.703125 0.580078,0.6972656 0.580078,2.0566406 z m 7.763672,0.4101562 v 0.5273438 H 27 q 0.07031,1.1132813 0.667969,1.6992188 0.603515,0.58007808 1.675781,0.58007808 0.621094,0 1.201172,-0.15234376 0.585937,-0.15234372 1.160156,-0.45703122 v 1.01953122 q -0.580078,0.24609376 -1.189453,0.375 -0.609375,0.12890625 -1.236328,0.12890625 -1.570313,0 -2.490235,-0.91406249 Q 25.875,-1.6582031 25.875,-3.2167969 q 0,-1.6113281 0.867187,-2.5546875 0.873047,-0.9492187 2.34961,-0.9492187 1.324219,0 2.091797,0.8554687 0.773437,0.8496094 0.773437,2.3144531 z m -1.078125,-0.3164062 q -0.01172,-0.8847656 -0.498047,-1.4121094 -0.480468,-0.5273437 -1.277343,-0.5273437 -0.902344,0 -1.447266,0.5097656 -0.539063,0.5097656 -0.621094,1.4355469 z m 11.384766,-2.4433594 v 1.0078125 q -0.457031,-0.2519531 -0.919922,-0.375 -0.457031,-0.1289062 -0.925781,-0.1289062 -1.048828,0 -1.628907,0.6679687 -0.580078,0.6621094 -0.580078,1.8632813 0,1.2011718 0.580078,1.8691406 0.580079,0.66210938 1.628907,0.66210938 0.46875,0 0.925781,-0.12304688 0.462891,-0.12890625 0.919922,-0.3808594 v 0.99609377 q -0.451172,0.21093751 -0.9375,0.31640625 -0.480469,0.10546875 -1.025391,0.10546875 -1.482422,0 -2.355469,-0.93164062 -0.873046,-0.93164065 -0.873046,-2.51367185 0,-1.6054688 0.878906,-2.5253906 0.884765,-0.9199219 2.419922,-0.9199219 0.498047,0 0.972656,0.1054687 0.474609,0.099609 0.919922,0.3046875 z m 4.417969,0.5039063 q -0.867188,0 -1.371094,0.6796875 -0.503906,0.6738281 -0.503906,1.8515625 0,1.1777343 0.498046,1.8574219 0.503907,0.67382808 1.376954,0.67382808 0.861328,0 1.365234,-0.67968748 0.503906,-0.6796875 0.503906,-1.8515625 0,-1.1660156 -0.503906,-1.8457031 -0.503906,-0.6855469 -1.365234,-0.6855469 z m 0,-0.9140625 q 1.40625,0 2.208984,0.9140625 0.802734,0.9140625 0.802734,2.53125 0,1.6113281 -0.802734,2.53124998 -0.802734,0.91406249 -2.208984,0.91406249 -1.41211,0 -2.214844,-0.91406249 -0.796875,-0.91992188 -0.796875,-2.53124998 0,-1.6171875 0.796875,-2.53125 0.802734,-0.9140625 2.214844,-0.9140625 z m 10.253906,2.7597656 V 0 h -1.078125 v -3.9257813 q 0,-0.9316406 -0.363281,-1.3945312 -0.363282,-0.4628906 -1.089844,-0.4628906 -0.873047,0 -1.376953,0.5566406 -0.503907,0.5566406 -0.503907,1.5175781 V 0 h -1.083984 v -6.5625 h 1.083984 v 1.0195313 q 0.386719,-0.5917969 0.908204,-0.8847657 0.527343,-0.2929687 1.21289,-0.2929687 1.13086,0 1.710938,0.703125 0.580078,0.6972656 0.580078,2.0566406 z m 3.216797,-4.4648438 V -6.5625 h 2.220703 v 0.8378906 h -2.220703 v 3.5625 q 0,0.8027344 0.216797,1.03125 0.222656,0.22851565 0.896484,0.22851565 h 1.107422 V 0 h -1.107422 q -1.248047,0 -1.722656,-0.46289063 -0.47461,-0.46875 -0.47461,-1.69921877 v -3.5625 H 58.277344 V -6.5625 h 0.791015 v -1.8632813 z m 9.251953,4.875 v 0.5273438 h -4.957031 q 0.07031,1.1132813 0.667968,1.6992188 0.603516,0.58007808 1.675782,0.58007808 0.621093,0 1.201171,-0.15234376 0.585938,-0.15234372 1.160157,-0.45703122 v 1.01953122 q -0.580078,0.24609376 -1.189453,0.375 -0.609375,0.12890625 -1.236329,0.12890625 -1.570312,0 -2.490234,-0.91406249 -0.914062,-0.91406248 -0.914062,-2.47265628 0,-1.6113281 0.867187,-2.5546875 0.873047,-0.9492187 2.349609,-0.9492187 1.324219,0 2.091797,0.8554687 0.773438,0.8496094 0.773438,2.3144531 z m -1.078125,-0.3164062 q -0.01172,-0.8847656 -0.498047,-1.4121094 -0.480469,-0.5273437 -1.277344,-0.5273437 -0.902344,0 -1.447265,0.5097656 -0.539063,0.5097656 -0.621094,1.4355469 z m 8.302734,-0.09375 V 0 h -1.078125 v -3.9257813 q 0,-0.9316406 -0.363281,-1.3945312 -0.363281,-0.4628906 -1.089844,-0.4628906 -0.873047,0 -1.376953,0.5566406 -0.503906,0.5566406 -0.503906,1.5175781 V 0 h -1.083985 v -6.5625 h 1.083985 v 1.0195313 q 0.386719,-0.5917969 0.908203,-0.8847657 0.527344,-0.2929687 1.212891,-0.2929687 1.130859,0 1.710937,0.703125 0.580078,0.6972656 0.580078,2.0566406 z m 3.216797,-4.4648438 V -6.5625 h 2.220703 v 0.8378906 h -2.220703 v 3.5625 q 0,0.8027344 0.216797,1.03125 0.222656,0.22851565 0.896484,0.22851565 h 1.107422 V 0 h -1.107422 q -1.248047,0 -1.722656,-0.46289063 -0.474609,-0.46875 -0.474609,-1.69921877 v -3.5625 H 77.970703 V -6.5625 h 0.791016 v -1.8632813 z"
           id="700ed1b57ae542f7b759bbbb9db58772"
           transform="translate(5,16)"
           aria-label="inline content" />
      </g>
      <g
         id="4095865125a94f5fa70d0daae753039e"
         transform="translate(507.03998,180.79999)">
        <path
           d="M 1.7109375,-1.984375 H 3.359375 V 0 H 1.7109375 Z m 5.0859375,0 H 8.4453125 V 0 H 6.796875 Z m 5.085938,0 H 13.53125 V 0 h -1.648437 z"
           id="50b576e95b604a24bd0734a763c25ef2"
           aria-label="..." />
      </g>
      <g
         id="60c1e03ef27b4799b4dc9e83fa648c98"
         transform="rotate(-90,348.82031,-115.94531)">
        <path
           d="M 1.7109375,-1.984375 H 3.359375 V 0 H 1.7109375 Z m 5.0859375,0 H 8.4453125 V 0 H 6.796875 Z m 5.085938,0 H 13.53125 V 0 h -1.648437 z"
           id="8d438e30f25544e99e57ea35ec269d73"
           aria-label="..." />
      </g>
      <g
         id="d16bdd29a17e4ca9867169b975959a44"
         transform="rotate(-90,238.48438,-42.203125)">
        <path
           d="m 2.3613281,-4.1777344 v 3.20507815 h 1.8984375 q 0.9550781,0 1.4121094,-0.39257815 0.4628906,-0.3984375 0.4628906,-1.2128906 0,-0.8203125 -0.4628906,-1.2070313 -0.4570313,-0.3925781 -1.4121094,-0.3925781 z m 0,-3.5976562 v 2.6367187 h 1.7519531 q 0.8671875,0 1.2890625,-0.3222656 0.4277344,-0.328125 0.4277344,-0.9960937 0,-0.6621094 -0.4277344,-0.9902344 -0.421875,-0.328125 -1.2890625,-0.328125 z M 1.1777344,-8.7480469 h 3.0234375 q 1.3535156,0 2.0859375,0.5625 0.7324218,0.5625 0.7324218,1.5996094 0,0.8027344 -0.375,1.2773438 -0.375,0.4746093 -1.1015625,0.5917968 0.8730469,0.1875 1.3535157,0.7851563 0.4863281,0.5917968 0.4863281,1.4824218 0,1.1718751 -0.796875,1.81054693 Q 5.7890625,0 4.3183594,0 H 1.1777344 Z M 9.3632813,-9.1171875 H 10.441406 V 0 H 9.3632813 Z m 5.8769527,3.3105469 q -0.867187,0 -1.371093,0.6796875 -0.503907,0.6738281 -0.503907,1.8515625 0,1.1777343 0.498047,1.8574219 0.503907,0.67382808 1.376953,0.67382808 0.861328,0 1.365235,-0.67968748 0.503906,-0.6796875 0.503906,-1.8515625 0,-1.1660156 -0.503906,-1.8457031 -0.503907,-0.6855469 -1.365235,-0.6855469 z m 0,-0.9140625 q 1.40625,0 2.208985,0.9140625 0.802734,0.9140625 0.802734,2.53125 0,1.6113281 -0.802734,2.53124998 -0.802735,0.91406249 -2.208985,0.91406249 -1.412109,0 -2.214843,-0.91406249 -0.796875,-0.91992188 -0.796875,-2.53124998 0,-1.6171875 0.796875,-2.53125 0.802734,-0.9140625 2.214843,-0.9140625 z m 9.521485,0.4101562 v 1.0078125 q -0.457032,-0.2519531 -0.919922,-0.375 -0.457031,-0.1289062 -0.925781,-0.1289062 -1.048829,0 -1.628907,0.6679687 -0.580078,0.6621094 -0.580078,1.8632813 0,1.2011718 0.580078,1.8691406 0.580078,0.66210938 1.628907,0.66210938 0.46875,0 0.925781,-0.12304688 0.46289,-0.12890625 0.919922,-0.3808594 v 0.99609377 q -0.451172,0.21093751 -0.9375,0.31640625 -0.480469,0.10546875 -1.025391,0.10546875 -1.482422,0 -2.355469,-0.93164062 -0.873047,-0.93164065 -0.873047,-2.51367185 0,-1.6054688 0.878907,-2.5253906 0.884765,-0.9199219 2.419922,-0.9199219 0.498046,0 0.972656,0.1054687 0.474609,0.099609 0.919922,0.3046875 z m 1.833984,-2.8066406 h 1.083984 v 5.3847656 L 30.896484,-6.5625 h 1.376953 L 28.792969,-3.4921875 32.419922,0 h -1.40625 L 27.679687,-3.2050781 V 0 h -1.083984 z"
           id="03b8e2fae40e404fa07fb3f5b2b95d70"
           aria-label="Block" />
      </g>
      <g
         id="c83fbac32a294b7598a779322badc1f8"
         transform="rotate(-90,233.65396,6.85795)">
        <path
           d="m 2.3613281,-7.7753906 v 6.80273435 h 1.4296875 q 1.8105469,0 2.6484375,-0.82031245 0.84375,-0.8203126 0.84375,-2.5898438 0,-1.7578125 -0.84375,-2.5722656 Q 5.6015625,-7.7753906 3.7910156,-7.7753906 Z M 1.1777344,-8.7480469 H 3.609375 q 2.5429687,0 3.7324219,1.0605469 1.1894531,1.0546875 1.1894531,3.3046875 0,2.2617187 -1.1953125,3.3222656 Q 6.140625,0 3.609375,0 H 1.1777344 Z m 11.7363286,2.9414063 q -0.867188,0 -1.371094,0.6796875 -0.503906,0.6738281 -0.503906,1.8515625 0,1.1777343 0.498046,1.8574219 0.503907,0.67382808 1.376954,0.67382808 0.861328,0 1.365234,-0.67968748 0.503906,-0.6796875 0.503906,-1.8515625 0,-1.1660156 -0.503906,-1.8457031 -0.503906,-0.6855469 -1.365234,-0.6855469 z m 0,-0.9140625 q 1.40625,0 2.208984,0.9140625 0.802734,0.9140625 0.802734,2.53125 0,1.6113281 -0.802734,2.53124998 -0.802734,0.91406249 -2.208984,0.91406249 -1.41211,0 -2.214844,-0.91406249 -0.7968752,-0.91992188 -0.7968752,-2.53124998 0,-1.6171875 0.7968752,-2.53125 0.802734,-0.9140625 2.214844,-0.9140625 z m 9.521484,0.4101562 v 1.0078125 q -0.457031,-0.2519531 -0.919922,-0.375 -0.457031,-0.1289062 -0.925781,-0.1289062 -1.048828,0 -1.628907,0.6679687 -0.580078,0.6621094 -0.580078,1.8632813 0,1.2011718 0.580078,1.8691406 0.580079,0.66210938 1.628907,0.66210938 0.46875,0 0.925781,-0.12304688 0.462891,-0.12890625 0.919922,-0.3808594 v 0.99609377 q -0.451172,0.21093751 -0.9375,0.31640625 -0.480469,0.10546875 -1.025391,0.10546875 -1.482422,0 -2.355469,-0.93164062 -0.873046,-0.93164065 -0.873046,-2.51367185 0,-1.6054688 0.878906,-2.5253906 0.884765,-0.9199219 2.419922,-0.9199219 0.498047,0 0.972656,0.1054687 0.474609,0.099609 0.919922,0.3046875 z m 1.763672,3.7207031 V -6.5625 h 1.078125 v 3.9316406 q 0,0.9316407 0.363281,1.4003907 0.363281,0.46289058 1.089844,0.46289058 0.873047,0 1.376953,-0.55664058 0.509765,-0.5566407 0.509765,-1.5175782 V -6.5625 h 1.078125 V 0 h -1.078125 v -1.0078125 q -0.392578,0.59765625 -0.914062,0.890625 -0.515625,0.28710937 -1.201172,0.28710937 -1.130859,0 -1.716797,-0.70312499 -0.585937,-0.70312498 -0.585937,-2.05664068 z m 2.71289,-4.1308593 z m 10.113282,1.4179687 q 0.404296,-0.7265625 0.966796,-1.0722656 0.5625,-0.3457031 1.324219,-0.3457031 1.025391,0 1.582031,0.7207031 0.556641,0.7148438 0.556641,2.0390625 V 0 h -1.083984 v -3.9257813 q 0,-0.9433593 -0.333985,-1.4003906 -0.333984,-0.4570312 -1.019531,-0.4570312 -0.837891,0 -1.324219,0.5566406 -0.486328,0.5566406 -0.486328,1.5175781 V 0 h -1.083984 v -3.9257813 q 0,-0.9492187 -0.333985,-1.4003906 -0.333984,-0.4570312 -1.03125,-0.4570312 -0.826171,0 -1.3125,0.5625 -0.486328,0.5566406 -0.486328,1.5117187 V 0 H 31.875 v -6.5625 h 1.083984 v 1.0195313 q 0.369141,-0.6035157 0.884766,-0.890625 0.515625,-0.2871094 1.224609,-0.2871094 0.714844,0 1.212891,0.3632812 0.503906,0.3632813 0.744141,1.0546875 z m 12.193359,1.7519531 v 0.5273438 h -4.957031 q 0.07031,1.1132813 0.667968,1.6992188 0.603516,0.58007808 1.675782,0.58007808 0.621093,0 1.201172,-0.15234376 0.585937,-0.15234372 1.160156,-0.45703122 v 1.01953122 q -0.580078,0.24609376 -1.189453,0.375 -0.609375,0.12890625 -1.236328,0.12890625 -1.570313,0 -2.490235,-0.91406249 -0.914062,-0.91406248 -0.914062,-2.47265628 0,-1.6113281 0.867187,-2.5546875 0.873047,-0.9492187 2.34961,-0.9492187 1.324218,0 2.091796,0.8554687 0.773438,0.8496094 0.773438,2.3144531 z m -1.078125,-0.3164062 q -0.01172,-0.8847656 -0.498047,-1.4121094 -0.480469,-0.5273437 -1.277344,-0.5273437 -0.902343,0 -1.447265,0.5097656 -0.539063,0.5097656 -0.621094,1.4355469 z m 8.302734,-0.09375 V 0 h -1.078125 v -3.9257813 q 0,-0.9316406 -0.363281,-1.3945312 -0.363281,-0.4628906 -1.089844,-0.4628906 -0.873047,0 -1.376953,0.5566406 -0.503906,0.5566406 -0.503906,1.5175781 V 0 h -1.083984 v -6.5625 h 1.083984 v 1.0195313 q 0.386719,-0.5917969 0.908203,-0.8847657 0.527344,-0.2929687 1.212891,-0.2929687 1.130859,0 1.710937,0.703125 0.580078,0.6972656 0.580078,2.0566406 z m 3.216797,-4.4648438 V -6.5625 h 2.220703 v 0.8378906 h -2.220703 v 3.5625 q 0,0.8027344 0.216797,1.03125 0.222656,0.22851565 0.896484,0.22851565 h 1.107422 V 0 h -1.107422 q -1.248046,0 -1.722656,-0.46289063 -0.474609,-0.46875 -0.474609,-1.69921877 v -3.5625 H 57.785156 V -6.5625 h 0.791016 v -1.8632813 z"
           id="ced6d5ee7daf498980363f848dbef918"
           aria-label="Document" />
      </g>
      <path
         style="fill:none;stroke:#000000;stroke-width:1px;stroke-linecap:butt;stroke-linejoin:miter;stroke-opacity:1"
         d="m 308.40789,146.35991 0.005,3.82537"
         id="path8" />
      <path
         style="fill:none;stroke:#000000;stroke-width:1px;stroke-linecap:butt;stroke-linejoin:miter;stroke-opacity:1"
         d="m 390.62428,180.9149 -3.92299,-0.0259"
         id="path9" />
    </g>
  </g>
</svg>
