<?xml version="1.0" encoding="UTF-8" standalone="no"?>
<!-- Created with Inkscape (http://www.inkscape.org/) -->

<svg
   width="23.159088mm"
   height="9.9722939mm"
   viewBox="0 0 23.159088 9.9722939"
   version="1.1"
   id="svg5"
   inkscape:version="1.1.2 (08b2f3d93c, 2022-04-05)"
   sodipodi:docname="manicule.svg"
   xmlns:inkscape="http://www.inkscape.org/namespaces/inkscape"
   xmlns:sodipodi="http://sodipodi.sourceforge.net/DTD/sodipodi-0.dtd"
   xmlns="http://www.w3.org/2000/svg"
   xmlns:svg="http://www.w3.org/2000/svg">
  <sodipodi:namedview
     id="namedview7"
     pagecolor="#ffffff"
     bordercolor="#666666"
     borderopacity="1.0"
     inkscape:pageshadow="2"
     inkscape:pageopacity="0.0"
     inkscape:pagecheckerboard="0"
     inkscape:document-units="mm"
     showgrid="false"
     fit-margin-top="0"
     fit-margin-left="0"
     fit-margin-right="0"
     fit-margin-bottom="0"
     inkscape:zoom="2.8284271"
     inkscape:cx="155.74027"
     inkscape:cy="120.03138"
     inkscape:window-width="1848"
     inkscape:window-height="1016"
     inkscape:window-x="72"
     inkscape:window-y="27"
     inkscape:window-maximized="1"
     inkscape:current-layer="layer1" />
  <defs
     id="defs2" />
  <g
     inkscape:label="Layer 1"
     inkscape:groupmode="layer"
     id="layer1"
     transform="translate(-118.02789,-105.09273)">
    <path
       style="fill:#000000;stroke-width:0.264583"
       d="m 118.47216,114.89848 c -0.38344,-0.23405 -0.4594,-0.65549 -0.44198,-2.45229 0.0369,-3.80043 0.34957,-6.53783 0.7778,-6.80861 0.76679,-0.48486 2.10794,-0.28704 2.74987,0.40561 0.74345,0.8022 0.9399,0.81195 2.30712,0.11445 1.67618,-0.85513 3.61648,-1.06288 9.94587,-1.06489 5.79236,-0.002 6.7453,0.11914 7.27716,0.92391 0.26061,0.39433 -0.0196,1.27563 -0.53427,1.68018 -0.25988,0.20429 -1.26118,0.33073 -2.61911,0.33073 -2.19795,0 -2.19839,1.4e-4 -2.19839,0.69636 0,0.4531 -0.3235,1.00146 -0.92604,1.56973 -0.57831,0.54542 -0.92605,1.12166 -0.92605,1.53458 0,0.43269 -0.27433,0.85655 -0.79375,1.22641 -0.43656,0.31086 -0.79375,0.72404 -0.79375,0.91818 0,0.63231 -1.48991,0.94925 -2.97011,0.6318 -0.99669,-0.21375 -1.82859,-0.20578 -3.22166,0.0309 -1.59365,0.27072 -2.057,0.257 -3.06008,-0.0906 -1.01866,-0.35303 -1.23907,-0.35807 -1.59442,-0.0365 -0.55241,0.49993 -2.40147,0.74213 -2.97821,0.39011 z m 8.0921,-1.21738 1.22063,-0.16731 -0.52225,-0.73343 c -0.28723,-0.40339 -0.52225,-0.85867 -0.52225,-1.01173 0,-0.16193 -0.80206,-0.3108 -1.91823,-0.35603 -1.11464,-0.0452 -1.888,-0.18858 -1.84609,-0.34232 0.0397,-0.14552 0.39687,-0.27831 0.79375,-0.29509 1.63725,-0.0692 1.71156,-0.16335 0.38287,-0.48508 -1.36537,-0.33062 -1.84581,-0.56306 -1.62342,-0.78544 0.0607,-0.0607 1.04049,0.0236 2.17726,0.18735 1.71784,0.24748 2.1054,0.2354 2.2951,-0.0715 0.14863,-0.24049 0.0518,-0.59354 -0.27748,-1.01221 -0.79731,-1.01361 -0.28211,-1.24641 0.68467,-0.30938 0.9057,0.87785 1.59804,0.85926 1.36377,-0.0366 -0.15452,-0.59087 0.27034,-0.65184 0.85739,-0.12304 0.22974,0.20694 0.7339,0.45516 1.12036,0.55159 0.5725,0.14285 0.73666,0.0682 0.88618,-0.4029 0.23567,-0.74252 0.007,-0.95154 -1.73609,-1.58876 -2.09221,-0.76472 -3.54351,-0.67697 -5.97686,0.36142 l -2.07416,0.88511 -0.2132,1.27168 c -0.11726,0.69942 -0.17765,1.81917 -0.1342,2.48833 0.071,1.09375 0.17254,1.26337 1.00505,1.67925 0.98098,0.49006 2.06505,0.56918 4.0572,0.29613 z m 4.62069,-0.12506 c -0.0855,-0.25641 -1.85638,-1.01578 -2.39404,-1.02657 -0.38902,-0.008 -0.19029,0.76821 0.26459,1.03316 0.6333,0.36886 2.25293,0.36385 2.12945,-0.007 z m 1.81659,-1.44521 c 0.22048,-0.57457 -0.27134,-0.98819 -1.29508,-1.08916 -0.47577,-0.0469 -1.08667,-0.11471 -1.35758,-0.15064 -0.2709,-0.0359 -0.62546,0.13982 -0.7879,0.39057 -0.23559,0.36364 -0.18945,0.53596 0.22796,0.85148 0.72401,0.54727 3.00234,0.54567 3.2126,-0.002 z m -4.93823,-0.0989 c 0,-0.13693 -0.11906,-0.32255 -0.26458,-0.41249 -0.14552,-0.0899 -0.26459,0.0221 -0.26459,0.24897 0,0.22687 0.11907,0.41249 0.26459,0.41249 0.14552,0 0.26458,-0.11203 0.26458,-0.24897 z m -7.40833,-0.67707 c 0,-0.21828 -0.11907,-0.39687 -0.26459,-0.39687 -0.14552,0 -0.26458,0.17859 -0.26458,0.39687 0,0.21828 0.11906,0.39688 0.26458,0.39688 0.14552,0 0.26459,-0.1786 0.26459,-0.39688 z m -0.96223,-2.30219 c 0.23057,-2.20602 0.21553,-2.74848 -0.0678,-2.44708 -0.27384,0.29125 -0.82201,2.75574 -0.82201,3.69566 0,0.43176 0.11741,0.59507 0.36069,0.50172 0.22106,-0.0848 0.42592,-0.76242 0.52917,-1.7503 z m 9.42889,1.35675 c 0,-0.37865 -0.14248,-0.52113 -0.45998,-0.45998 -0.6897,0.13282 -0.76662,1.00855 -0.0886,1.00855 0.37864,0 0.54856,-0.16993 0.54856,-0.54857 z m 5.15938,-0.5572 0.52917,-0.53704 -0.66146,0.22303 c -0.36381,0.12266 -1.15736,0.2244 -1.76346,0.22608 -1.20198,0.003 -1.56842,0.19664 -1.27446,0.67228 0.28946,0.46835 2.54207,0.0531 3.17021,-0.58435 z m -13.70989,-0.26676 c -0.0845,-0.21107 -0.14715,-0.14837 -0.15985,0.15985 -0.0115,0.27892 0.0511,0.43519 0.13897,0.34727 0.0879,-0.0879 0.0973,-0.31612 0.0209,-0.50712 z m 9.87343,0.0652 c 0,-0.35728 -0.48232,-0.60496 -0.79807,-0.40982 -0.14789,0.0914 -0.20039,0.27703 -0.11667,0.41249 0.19861,0.32137 0.91474,0.31928 0.91474,-0.003 z m 3.43958,-0.80899 c 0,-0.27097 -1.33543,-0.60522 -1.55216,-0.38849 -0.25897,0.25897 0.76387,0.89858 1.18101,0.73851 0.20413,-0.0783 0.37115,-0.23584 0.37115,-0.35002 z m 5.7659,-1.92519 c 0.60861,-0.48991 -0.0387,-0.70267 -2.59642,-0.85336 -1.37941,-0.0813 -3.16286,-0.21368 -3.96323,-0.29425 -0.80036,-0.0806 -1.75286,-0.0326 -2.11666,0.10651 l -0.66146,0.25299 0.95989,0.40342 c 0.52793,0.22189 1.03999,0.53305 1.1379,0.69147 0.22659,0.36663 6.74663,0.0904 7.23998,-0.30678 z"
       id="path854" />
  </g>
</svg>
